# xmcd
#
# Track frame offsets:
#	188
#	21863
#	45863
#	66263
#	89438
#	104063
#	124538
#	143288
#	161738
#	179288
#	197138
#	220688
#
# Disc length: 3178 seconds
#
# Revision: 0
# Processed by: cddbd v1.5.2PL0 Copyright (c) Steve Scherf et al.
# Submitted via: dBpowerAMP V4.0
#
DISCID=a00c680c
DTITLE=Solid - Major Blues
DYEAR=1900
DGENRE=Blues
TTITLE0=Solid Ground
TTITLE1=Count me out
TTITLE2=Meanest man
TTITLE3=Discover me
TTITLE4=Twilight zone
TTITLE5=When love left town 
TTITLE6=Angeline
TTITLE7=Delta gilr
TTITLE8=Brightening up the blues
TTITLE9=Zero hour
TTITLE10=The temptress
TTITLE11=Mind
EXTD=Edited by Jammin in Mérida, Badajoz, Spain
EXTT0=
EXTT1=
EXTT2=
EXTT3=
EXTT4=
EXTT5=
EXTT6=
EXTT7=
EXTT8=
EXTT9=
EXTT10=
EXTT11=
PLAYORDER=
